<?xml version="1.0" encoding="UTF-8" standalone="no"?>
<!-- Created with Inkscape (http://www.inkscape.org/) -->

<svg
   xmlns:dc="http://purl.org/dc/elements/1.1/"
   xmlns:cc="http://creativecommons.org/ns#"
   xmlns:rdf="http://www.w3.org/1999/02/22-rdf-syntax-ns#"
   xmlns:svg="http://www.w3.org/2000/svg"
   xmlns="http://www.w3.org/2000/svg"
   xmlns:sodipodi="http://sodipodi.sourceforge.net/DTD/sodipodi-0.dtd"
   xmlns:inkscape="http://www.inkscape.org/namespaces/inkscape"
   width="100%"
   height="100%"
   viewBox="0 0 383.78218 54.852352"
   id="svg4162"
   version="1.1"
   inkscape:version="0.91 r13725"
   sodipodi:docname="banner.svg">
  <defs
     id="defs4164" />
  <sodipodi:namedview
     id="base"
     pagecolor="#ffffff"
     bordercolor="#666666"
     borderopacity="1.0"
     inkscape:pageopacity="0.0"
     inkscape:pageshadow="2"
     inkscape:zoom="1.979899"
     inkscape:cx="212.79554"
     inkscape:cy="39.915394"
     inkscape:document-units="px"
     inkscape:current-layer="layer1"
     showgrid="false"
     fit-margin-top="0"
     fit-margin-left="0"
     fit-margin-right="0"
     fit-margin-bottom="0"
     inkscape:window-width="1366"
     inkscape:window-height="705"
     inkscape:window-x="-8"
     inkscape:window-y="-8"
     inkscape:window-maximized="1" />
  <metadata
     id="metadata4167">
    <rdf:RDF>
      <cc:Work
         rdf:about="">
        <dc:format>image/svg+xml</dc:format>
        <dc:type
           rdf:resource="http://purl.org/dc/dcmitype/StillImage" />
        <dc:title></dc:title>
      </cc:Work>
    </rdf:RDF>
  </metadata>
  <g
     inkscape:label="Layer 1"
     inkscape:groupmode="layer"
     id="layer1"
     transform="translate(-185.25177,-197.64862)">
    <g
       id="g4758">
      <g
         id="g4746"
         transform="matrix(0.68672045,0,0,0.38948838,123.7506,131.36685)">
        <path
           style="opacity:1;fill:#808080"
           d="m 227.40216,207.43514 -137.844369,16.85899 46.992979,30.54941 -35.35184,54.37984 136.60858,-16.70789 -10.40535,-85.08035 z"
           id="rect4704"
           inkscape:connector-curvature="0" />
        <path
           inkscape:connector-curvature="0"
           style="opacity:1;fill:#666666"
           d="m 175.71484,183.71875 0,86.33984 62.13672,22.23243 0.72071,0 0,-108.57227 -62.85743,0 z"
           id="rect4710" />
      </g>
      <g
         id="g4750"
         transform="matrix(0.68672045,0,0,0.38948838,123.7506,131.36685)">
        <path
           inkscape:connector-curvature="0"
           id="path4723"
           d="m 510.79557,207.66175 137.62453,18.56832 -47.36847,29.96387 34.67427,54.81437 -136.39072,-18.40189 11.46039,-84.94467 z"
           style="opacity:1;fill:#808080" />
        <path
           inkscape:connector-curvature="0"
           id="path4725"
           d="m 562.35959,183.71875 0,86.33984 -62.13672,22.23243 -0.72071,0 0,-108.57227 62.85743,0 z"
           style="opacity:1;fill:#666666" />
      </g>
      <rect
         y="197.64862"
         x="244.29817"
         height="38.392426"
         width="265.85889"
         id="rect4702"
         style="opacity:1;fill:#999999" />
      <g
         transform="matrix(0.86822025,0,0,0.86822025,41.401038,-47.885538)"
         id="g4753">
        <path
           style="font-style:normal;font-variant:normal;font-weight:normal;font-stretch:normal;font-size:40px;line-height:125%;font-family:'Old English Text MT';-inkscape-font-specification:'Old English Text MT';letter-spacing:0px;word-spacing:0px;fill:#808080;fill-opacity:1;stroke:none;stroke-width:1px;stroke-linecap:butt;stroke-linejoin:miter;stroke-opacity:1"
           d="m 328.625,286.3725 c -6.64163,4.88124 -15.8355,-4.01649 -22.17773,2.21485 -4.50698,2.84759 -2.67858,11.91294 3.27929,10.39257 2.72879,-0.49184 2.87787,-4.42839 2.25782,-5.66406 1.31989,1.06004 6.11237,0.4457 3.57617,2.68164 -0.75524,1.96263 -1.11104,3.19754 -3.49219,2.54688 -3.34656,0.41515 -8.18941,3.54672 -3.68238,6.3316 -2.96976,0.67777 -1.63345,6.45233 2.21168,4.95941 3.06847,-0.62908 7.08011,5.93139 3.18359,6.64063 -4.29027,-2.17606 -10.33401,-0.28392 -11.04492,4.8789 0.0497,5.53655 3.9412,0.69529 6.78125,1.95313 7.24233,2.90404 15.0239,-3.6198 17.70312,-10.05274 2.83172,-7.60264 -2.19104,-17.26351 4.73438,-23.27343 3.01263,-1.02397 -2.06232,-5.95212 -3.33008,-3.60938 z m 43.19141,1.25586 c -2.59428,-0.28978 -4.46352,3.0668 -6.70899,0.83008 -4.54583,-1.58327 -4.07993,3.42016 -1.48437,5.37305 1.93385,8.27097 -4.50133,0.34846 -7.96823,1.15993 -2.46182,2.90708 -7.57321,3.31047 -5.80521,8.20139 -0.5386,3.93516 1.65023,11.36271 -2.36719,7.87891 0.23365,-4.83283 -1.22536,-10.30401 2.59375,-14.17383 -4.12778,-1.63601 -7.8216,-0.42929 -11.77371,-1.88916 -2.17799,2.75057 -8.59918,0.44844 -5.80785,5.82594 3.37777,3.78398 -2.93744,6.60522 -2.28367,10.88354 -0.28185,3.56851 3.20527,7.9989 6.07239,7.83984 2.05093,-1.52162 3.89125,-4.48657 5.43542,-1.33203 3.51746,4.80215 5.9364,-4.52374 10.19336,-0.71289 3.62318,1.59166 6.64534,3.41804 9.60233,-0.66051 4.38208,-2.24931 7.85078,6.90477 11.40834,0.43351 2.04074,0.16684 4.29236,5.16185 7.31533,0.15625 3.13129,-2.32326 7.90998,2.93627 11.07634,1.7934 4.07967,-4.64133 7.99479,-3.77523 12.04035,0.49464 3.15063,-1.42679 6.19702,-4.43705 10.47723,-1.54932 3.6886,4.20361 6.30914,-2.28288 9.76367,-1.56055 4.23198,-0.47045 7.66218,5.65139 10.91602,1.3125 4.12268,-3.52929 7.85297,-1.20118 11.2539,2.16797 4.19076,-7.47746 8.41162,3.5519 12.59286,-2.74184 2.35571,-3.61579 2.95886,1.91987 5.43497,2.41657 6.31579,-1.56101 8.36417,-7.32016 4.00147,-10.39934 0.32781,-3.82387 -1.52203,-8.88832 3.06641,-10.91992 -4.08844,-2.88722 -8.11679,-5.32079 -12.24109,-1.11916 -1.91522,2.32883 -4.03831,-5.54335 -6.38977,-2.09959 -2.17846,2.88362 -3.45525,2.89066 -5.3457,0.37109 -3.78501,-3.35118 -6.19561,5.72105 -10.51368,1.54297 -4.1408,-2.45785 -6.93666,-2.96543 -10.72265,0.50586 -4.0913,2.78223 -8.23585,-6.51906 -11.48242,-1.31641 -3.74697,3.93149 -6.55856,-0.75905 -7.59568,-3.76363 -0.64028,-6.88396 -7.72689,2.20613 -9.55667,5.08785 -1.4198,2.80733 -5.42267,-7.12527 -9.7568,-0.885 -6.82333,0.60178 -4.36768,7.30969 -4.71195,12.27563 1.05344,4.17885 -1.99921,3.1315 -2.46484,0.56054 -0.0238,-2.6827 -4.25486,-4.96536 0.0587,-6.46552 4.70482,-1.58061 -4.29966,-10.8579 -6.10753,-7.81182 -2.77244,4.33488 -2.79484,0.25974 -2.09961,-2.32031 2.18385,-1.13618 4.29406,-7.06388 -0.11523,-5.39063 z m -8.11914,22.06641 c 1.67282,2.35243 -5.52123,3.30815 -5.84375,-0.0156 -2.54615,-4.60603 7.05414,-10.14693 5.84375,-6.32031 0,2.11198 0,4.22396 0,6.33594 z m 59.0625,0.38086 c -5.93673,7.65131 -7.13737,-9.02949 -1.90337,-5.5085 3.82783,-7.71526 1.07595,3.55098 1.90337,5.5085 z m -14.44532,-8.29297 c 2.52644,0.34694 2.98747,14.12653 -0.98097,9.6357 -1.35598,3.17721 -2.18271,-12.87956 0.98097,-9.6357 z m 32.4336,1.90625 c 2.65557,-1.66838 0.85172,13.64522 -0.98047,9.54687 0.56937,-1.06193 -1.16667,-14.62218 0.98047,-9.54687 z m -101.26953,-0.86524 c 0.35408,1.46048 -2.42132,-1.53585 0,0 z m 111.23242,0.17383 c 0.85313,7.52899 -1.45028,13.71252 -1.02149,2.59961 -0.39672,-0.57053 0.20193,-3.93405 1.02149,-2.59961 z m 9.08008,10.39844 c -1.99582,-0.11148 -1.41607,-11.66291 0,-9.72656 0,3.24219 0,6.48437 0,9.72656 z m -28.86133,-10.48633 c 2.83588,3.83121 -0.84886,13.46437 -0.22461,3.0918 0.34737,-0.53083 -0.55135,-3.25935 0.22461,-3.0918 z m -57.77735,0.0586 c -2.33127,2.46336 -1.88226,1.02766 0,0 z m 17.45313,1.10156 c -0.24482,0.42334 -0.18308,-0.54623 0,0 z m -79.24219,0.0801 c 1.04385,0.22052 -2.12731,0.40951 0,0 z m 87.02149,6.8164 c 0.0238,-0.5169 -6.88359,2.43335 -7.91407,-0.59179 4.79512,-2.04507 9.82716,-10.79946 7.91407,0.59179 z m -58.90625,-2.54687 c 1.00996,4.37964 -2.53378,3.26122 -1.76954,0.0449 -0.16297,-1.71436 1.02143,-0.0893 1.76954,-0.0449 z m 32.48437,1.91211 c 1.82609,1.93018 -1.9872,2.65923 0,0 z"
           id="text4747"
           inkscape:connector-curvature="0" />
        <text
           xml:space="preserve"
           style="font-style:normal;font-variant:normal;font-weight:normal;font-stretch:normal;font-size:40px;line-height:125%;font-family:'Old English Text MT';-inkscape-font-specification:'Old English Text MT';letter-spacing:0px;word-spacing:0px;fill:#000000;fill-opacity:1;stroke:none;stroke-width:1px;stroke-linecap:butt;stroke-linejoin:miter;stroke-opacity:1"
           x="304.21094"
           y="317.392"
           id="text4743"
           sodipodi:linespacing="125%"><tspan
             sodipodi:role="line"
             id="tspan4745"
             x="304.21094"
             y="317.392">Jacketcom</tspan></text>
      </g>
    </g>
  </g>
</svg>
